# File created by Blade
# Date/Time:  Mon Sep 22 17:23:16 2014
# Frame Rate: 120.000 fps
#------------------------------------------------------
:FULLY-SPECIFIED
:DEGREES
4059
root 1.836058 37.819689 0.856795 -2.160239 -20.653479 -15.162889
RightUpLeg -24.373196 -5.883838 -1.842535
RightLeg 85.019010 -0.000000 -0.000000
RightFoot 10.727467 -21.932305 12.781182
RightToeBase 2.106328 -0.000000 -0.000000
LeftUpLeg 11.959608 -8.840148 4.645938
LeftLeg 11.893330 -0.000000 -0.000000
LeftFoot -18.367167 15.297610 -13.449463
LeftToeBase 0.324651 -0.000000 -0.000000
Spine 18.178172 -9.528315 6.574953
RightShoulder -6.286920 -32.345311 -4.330490
RightArm 14.958049 -15.244549 59.683718
RightForeArm -186.806043 -0.000000 92.706464
RightHand 93.005165 0.000000 -161.194931
RightHandThumb1 -24.326973 -0.000000 -32.862282
LeftShoulder -26.447253 33.750344 1.785083
LeftArm 44.275155 -16.178399 -62.173673
LeftForeArm 37.416661 -0.000000 114.792635
LeftHand -32.750078 0.000000 31.471778
LeftHandThumb1 -26.253704 0.000000 33.147579
Head -0.445087 25.778908 9.364676
4060
root 1.813534 37.823875 0.847208 -2.362737 -20.357400 -14.979810
RightUpLeg -24.200202 -5.864644 -1.682069
RightLeg 84.071830 -0.000000 -0.000000
RightFoot 10.512630 -21.994417 13.047579
RightToeBase 2.207226 -0.000000 -0.000000
LeftUpLeg 12.130178 -8.903651 4.578043
LeftLeg 11.680248 -0.000000 -0.000000
LeftFoot -18.248602 15.019343 -13.557409
LeftToeBase 0.516273 -0.000000 -0.000000
Spine 18.393949 -9.673317 6.077227
RightShoulder -6.415695 -32.306432 -4.037184
RightArm 15.059956 -15.329952 59.732333
RightForeArm -186.601143 -0.000000 92.531411
RightHand 93.109723 -0.000000 -161.193410
RightHandThumb1 -24.326973 -0.000000 -32.862282
LeftShoulder -26.366713 33.737637 1.994877
LeftArm 44.365319 -16.486851 -62.585037
LeftForeArm 37.395095 -0.000000 114.874776
LeftHand -32.596718 -0.000000 30.706479
LeftHandThumb1 -26.253704 0.000000 33.147579
Head -0.608090 25.691123 9.818304
4061
root 1.797106 37.827304 0.837267 -2.556330 -20.052702 -14.760219
RightUpLeg -24.041936 -5.851782 -1.563810
RightLeg 83.075668 -0.000000 -0.000000
RightFoot 10.269633 -22.045763 13.167997
RightToeBase 2.390290 -0.000000 -0.000000
LeftUpLeg 12.268964 -8.976620 4.469704
LeftLeg 11.477713 -0.000000 -0.000000
LeftFoot -18.088726 14.757539 -13.636360
LeftToeBase 0.662547 -0.000000 -0.000000
Spine 18.600423 -9.833325 5.547211
RightShoulder -6.528864 -32.256290 -3.765675
RightArm 15.148392 -15.415710 59.784990
RightForeArm -186.414152 -0.000000 92.365342
RightHand 93.103242 -0.000000 -161.083957
RightHandThumb1 -24.326973 -0.000000 -32.862282
LeftShoulder -26.347459 33.747675 2.134218
LeftArm 44.538877 -16.778308 -62.957374
LeftForeArm 37.296165 -0.000000 114.945389
LeftHand -32.646589 -0.000000 30.213297
LeftHandThumb1 -26.253704 0.000000 33.147579
Head -0.802720 25.618193 10.217944
4062
root 1.778319 37.829251 0.824757 -2.741815 -19.749795 -14.534099
RightUpLeg -23.890155 -5.810188 -1.434952
RightLeg 82.064433 -0.000000 -0.000000
RightFoot 10.119263 -22.145643 13.144495
RightToeBase 2.766322 -0.000000 -0.000000
LeftUpLeg 12.383282 -9.070728 4.351578
LeftLeg 11.306165 -0.000000 -0.000000
LeftFoot -17.957088 14.495219 -13.768405
LeftToeBase 0.740441 -0.000000 -0.000000
Spine 18.817767 -9.984828 4.989303
RightShoulder -6.635817 -32.200404 -3.489325
RightArm 15.217608 -15.505112 59.842220
RightForeArm -186.229842 -0.000000 92.230097
RightHand 93.137573 -0.000000 -161.002323
RightHandThumb1 -24.326973 -0.000000 -32.862282
LeftShoulder -26.344038 33.695143 2.294452
LeftArm 44.659953 -17.053555 -63.302726
LeftForeArm 37.182614 -0.000000 114.996627
LeftHand -32.508963 -0.000000 29.639121
LeftHandThumb1 -26.253704 0.000000 33.147579
Head -1.047869 25.572855 10.611605
4063
root 1.758604 37.831444 0.809161 -2.895930 -19.424208 -14.332002
RightUpLeg -23.748259 -5.776187 -1.271218
RightLeg 81.000918 -0.000000 -0.000000
RightFoot 9.969296 -22.271345 13.192766
RightToeBase 2.708260 -0.000000 -0.000000
LeftUpLeg 12.443987 -9.228448 4.245661
LeftLeg 11.188416 -0.000000 -0.000000
LeftFoot -17.855353 14.296980 -13.872629
LeftToeBase 0.859748 -0.000000 -0.000000
Spine 19.019705 -10.137321 4.469298
RightShoulder -6.770768 -32.211114 -3.216103
RightArm 15.347149 -15.568958 59.884835
RightForeArm -186.051757 -0.000000 92.089745
RightHand 93.101551 -0.000000 -160.941900
RightHandThumb1 -24.326973 -0.000000 -32.862282
LeftShoulder -26.334919 33.642134 2.432709
LeftArm 44.802822 -17.317480 -63.590124
LeftForeArm 37.031503 -0.000000 115.019240
LeftHand -32.390970 -0.000000 29.352650
LeftHandThumb1 -26.253704 0.000000 33.147579
Head -1.341612 25.462737 10.920711
4064
root 1.737167 37.832327 0.792669 -3.051375 -19.095315 -14.123247
RightUpLeg -23.606770 -5.722707 -1.107414
RightLeg 79.912811 -0.000000 -0.000000
RightFoot 9.962346 -22.545858 13.163369
RightToeBase 2.250508 -0.000000 -0.000000
LeftUpLeg 12.489247 -9.359388 4.143649
LeftLeg 11.094560 -0.000000 -0.000000
LeftFoot -17.761605 14.070540 -13.980875
LeftToeBase 0.969162 -0.000000 -0.000000
Spine 19.234035 -10.280869 3.934798
RightShoulder -6.882614 -32.195362 -2.976757
RightArm 15.410681 -15.654885 59.972479
RightForeArm -185.918977 -0.000000 91.973047
RightHand 93.170458 -0.000000 -160.706425
RightHandThumb1 -24.326973 -0.000000 -32.862282
LeftShoulder -26.313170 33.547422 2.583782
LeftArm 44.901726 -17.565347 -63.792608
LeftForeArm 36.944703 -0.000000 115.041758
LeftHand -32.301119 -0.000000 29.278670
LeftHandThumb1 -26.253704 0.000000 33.147579
Head -1.642651 25.383488 11.216553
4065
root 1.716053 37.832615 0.770758 -3.184604 -18.741833 -13.930166
RightUpLeg -23.488930 -5.702607 -0.920159
RightLeg 78.802382 -0.000000 -0.000000
RightFoot 9.798062 -22.985387 13.177694
RightToeBase 2.358531 -0.000000 -0.000000
LeftUpLeg 12.489616 -9.536927 4.048237
LeftLeg 11.039316 -0.000000 -0.000000
LeftFoot -17.689477 13.882860 -14.065234
LeftToeBase 1.030656 -0.000000 -0.000000
Spine 19.446751 -10.413113 3.426309
RightShoulder -6.993346 -32.157667 -2.759151
RightArm 15.427069 -15.744493 60.081627
RightForeArm -185.775610 0.000000 91.873613
RightHand 93.224052 -0.000000 -160.745560
RightHandThumb1 -24.326973 -0.000000 -32.862282
LeftShoulder -26.227883 33.443689 2.788362
LeftArm 44.961343 -17.790678 -63.952856
LeftForeArm 36.874091 -0.000000 115.087250
LeftHand -32.327968 -0.000000 29.495887
LeftHandThumb1 -26.253704 0.000000 33.147579
Head -1.975893 25.261611 11.472885
